<?xml version="1.0" standalone="no"?>
<!DOCTYPE svg PUBLIC "-//W3C//DTD SVG 20010904//EN"
 "http://www.w3.org/TR/2001/REC-SVG-20010904/DTD/svg10.dtd">
<svg version="1.0" xmlns="http://www.w3.org/2000/svg"
 width="720" height="1000" viewBox="0 0 720 350"
 preserveAspectRatio="xMidYMid meet">

<g transform="translate(0.000000,350.000000) scale(0.100000,-0.100000)"
fill="#a40ae0" stroke="none">
<path d="M1400 2381 c-105 -20 -200 -93 -240 -186 -21 -49 -46 -195 -37 -218
5 -14 24 -19 118 -32 l46 -7 7 64 c9 79 39 149 75 176 83 61 210 48 274 -27
44 -52 47 -98 47 -661 l0 -530 96 0 96 0 -5 543 c-3 368 -9 560 -17 597 -28
131 -99 219 -208 259 -65 23 -185 34 -252 22z"/>
<path d="M2625 2374 c-278 -59 -466 -283 -506 -602 -28 -225 32 -461 158 -617
59 -73 177 -154 269 -186 61 -21 87 -24 219 -24 136 0 156 3 222 26 185 68
324 212 387 404 24 74 46 210 46 285 0 91 -26 238 -55 316 -113 300 -420 465
-740 398z m290 -171 c65 -23 117 -58 173 -117 101 -106 150 -271 139 -466 -14
-240 -104 -400 -272 -480 -202 -97 -474 -12 -578 179 -91 166 -99 474 -18 647
39 83 138 185 214 219 95 44 245 52 342 18z"/>
<path d="M3748 2363 l-98 -4 0 -699 0 -700 273 0 c292 0 408 9 496 41 162 57
281 204 332 415 32 128 32 361 0 489 -59 241 -187 383 -396 441 -46 13 -111
17 -285 19 -124 1 -269 0 -322 -2z m542 -179 c116 -27 174 -74 231 -185 48
-97 63 -175 63 -349 0 -133 -3 -165 -22 -227 -42 -135 -138 -243 -245 -275
-28 -8 -117 -13 -262 -13 l-220 0 -3 520 c-1 286 0 526 3 533 7 19 370 16 455
-4z"/>
<path d="M5027 2363 c-4 -3 -7 -318 -7 -699 l0 -694 27 -6 c14 -4 162 -4 327
-1 386 8 453 23 573 131 136 123 203 310 203 572 0 136 -10 206 -46 315 -69
211 -208 338 -409 374 -83 15 -655 22 -668 8z m643 -179 c149 -35 231 -133
276 -330 23 -101 23 -290 1 -392 -30 -135 -113 -249 -215 -294 -54 -24 -233
-40 -404 -36 l-113 3 -3 533 -2 532 197 0 c142 0 216 -5 263 -16z"/>
</g>
</svg>
